<svg width="1500" height="500" viewBox="0 0 1500 500" fill="none" xmlns="http://www.w3.org/2000/svg">
<rect width="1500" height="500" fill="white"/>
<ellipse cx="233.237" cy="250.191" rx="134.344" ry="127.901" fill="#00EC97"/>
<ellipse cx="384.656" cy="250.191" rx="134.344" ry="127.901" fill="#00EC97"/>
<path d="M274.797 371.971L287.361 367.46C293.697 364.883 310.751 361.082 328.277 366.494C345.803 371.906 347.392 359.299 345.996 352.319L308.302 339.11C299.604 343.942 281.82 353.929 280.274 355.218C278.727 356.507 274.797 371.971 274.797 371.971Z" fill="#00EC97"/>
<path d="M344.452 128.734L331.888 133.244C325.552 135.822 308.498 139.623 290.973 134.211C273.447 128.799 271.857 141.406 273.253 148.386L310.947 161.595C319.645 156.763 337.429 146.775 338.976 145.487C340.522 144.198 344.452 128.734 344.452 128.734Z" fill="#00EC97"/>
<path d="M321.511 307.859V301.738C321.619 300.342 322.156 297.035 323.444 294.973C324.733 292.911 328.492 289.603 330.21 288.207L406.241 224.74L431.693 203.477C431.907 202.94 431.886 201.866 430.082 201.866H351.473L350.506 202.188V203.799L375.958 232.794C376.387 233.546 376.989 235.307 375.958 236.338C374.669 237.627 373.38 238.271 372.092 237.305C371.061 236.531 345.889 219.585 333.431 211.209L327.31 207.021C325.485 205.732 321.833 201.995 321.833 197.356V193.168C321.941 191.235 323.058 186.724 326.666 184.147C330.274 181.57 333.109 180.925 334.076 180.925L372.414 180.603H413.973H448.768C452.634 181.355 460.494 184.92 461.01 193.168V200.578C461.01 202.188 459.721 206.505 454.567 210.887C449.412 215.268 435.881 226.673 429.76 231.828L386.911 267.588L352.117 296.584L351.473 297.55V298.194V298.839L352.439 299.161H369.836H409.463H431.37L432.015 298.839L432.337 297.872V297.228L431.37 296.261L407.53 268.877L406.564 267.588C406.241 267.052 405.919 265.591 407.208 264.045C407.53 264.045 409.141 262.756 411.074 264.045C412.62 265.076 436.633 281.227 448.445 289.174L456.177 294.328C457.573 295.295 460.43 298.323 460.688 302.705V308.826C460.043 312.155 456.886 319.071 449.412 320.102H412.04H379.501H345.352H334.076C330.425 319.78 322.8 316.88 321.511 307.859Z" fill="white"/>
<path d="M176.213 180.925H182.335C183.731 181.033 187.038 181.57 189.1 182.858C191.162 184.147 194.47 187.906 195.866 189.624L259.333 265.655L280.596 291.107C281.133 291.321 282.207 291.3 282.207 289.496V210.887L281.884 209.92H280.274L251.279 235.372C250.527 235.801 248.766 236.403 247.735 235.372C246.446 234.083 245.802 232.794 246.768 231.506C247.541 230.475 264.487 205.303 272.864 192.846L277.052 186.724C278.341 184.899 282.078 181.247 286.717 181.247H290.905C292.838 181.355 297.349 182.472 299.926 186.08C302.503 189.688 303.148 192.523 303.148 193.49L303.47 231.828V273.387V308.182C302.718 312.048 299.153 319.909 290.905 320.424H283.495C281.884 320.424 277.567 319.135 273.186 313.981C268.804 308.826 257.4 295.295 252.245 289.174L216.484 246.325L187.489 211.531L186.523 210.887H185.878H185.234L184.912 211.853V229.25V268.877V290.785L185.234 291.429L186.201 291.751H186.845L187.811 290.785L215.196 266.944L216.484 265.978C217.021 265.655 218.482 265.333 220.028 266.622C220.028 266.944 221.317 268.555 220.028 270.488C218.997 272.034 202.846 296.047 194.899 307.859L189.744 315.591C188.778 316.988 185.75 319.844 181.368 320.102H175.247C171.918 319.457 165.002 316.3 163.971 308.826V271.454V238.916V204.766V193.49C164.293 189.839 167.193 182.214 176.213 180.925Z" fill="white"/>
<path d="M569.77 313V190.09H594.335L650.435 271.435V190.09H675.255V313H652.9L594.505 228.425V313H569.77ZM702.749 313V190.09H787.154L787.069 211H727.654V240.835H779.249V261.32H727.484V291.835L788.004 291.92V313H702.749ZM802.062 313L846.007 190.09H872.272L916.217 313H891.482L881.452 284.525H837.167L826.967 313H802.062ZM842.777 262.85H875.417L859.182 213.975L842.777 262.85ZM934.672 313V190.09H986.522C996.326 190.09 1004.34 191.648 1010.58 194.765C1016.81 197.882 1021.4 202.217 1024.35 207.77C1027.29 213.267 1028.77 219.613 1028.77 226.81C1028.77 233.27 1027.75 238.738 1025.71 243.215C1023.72 247.635 1021.09 251.318 1017.8 254.265C1014.57 257.212 1011.03 259.62 1007.18 261.49L1030.04 313H1004.29L984.312 265.655H959.407V313H934.672ZM959.407 246.53H982.102C988.732 246.53 993.974 244.745 997.827 241.175C1001.74 237.605 1003.69 233.015 1003.69 227.405C1003.69 221.738 1001.82 217.262 998.082 213.975C994.342 210.688 989.611 209.045 983.887 209.045H959.407V246.53ZM1048.45 313V300.93L1110.84 210.83H1052.62V190.09H1146.2V201.65L1082.96 292.005H1145.52V313H1048.45ZM1166.93 313V190.09H1251.33L1251.25 211H1191.83V240.835H1243.43V261.32H1191.66V291.835L1252.18 291.92V313H1166.93ZM1275.34 313V190.09H1299.9L1356 271.435V190.09H1380.82V313H1358.47L1300.07 228.425V313H1275.34Z" fill="#00EC97"/>
</svg>
